<svg xmlns="http://www.w3.org/2000/svg" 
  xmlns:xlink="http://www.w3.org/1999/xlink">
  <defs>
    <svg id="dashboard" width="15" height="15" viewBox="0 0 15 15" fill="none" xmlns="http://www.w3.org/2000/svg">
      <path d="M6.52174 0H0.326087C0.146739 0 0 0.146739 0 0.326087V6.52174C0 6.70109 0.146739 6.84783 0.326087 6.84783H6.52174C6.70109 6.84783 6.84783 6.70109 6.84783 6.52174V0.326087C6.84783 0.146739 6.70109 0 6.52174 0ZM5.46196 5.46196H1.38587V1.38587H5.46196V5.46196ZM14.6739 0H8.47826C8.29891 0 8.15217 0.146739 8.15217 0.326087V6.52174C8.15217 6.70109 8.29891 6.84783 8.47826 6.84783H14.6739C14.8533 6.84783 15 6.70109 15 6.52174V0.326087C15 0.146739 14.8533 0 14.6739 0ZM13.6141 5.46196H9.53804V1.38587H13.6141V5.46196ZM6.52174 8.15217H0.326087C0.146739 8.15217 0 8.29891 0 8.47826V14.6739C0 14.8533 0.146739 15 0.326087 15H6.52174C6.70109 15 6.84783 14.8533 6.84783 14.6739V8.47826C6.84783 8.29891 6.70109 8.15217 6.52174 8.15217ZM5.46196 13.6141H1.38587V9.53804H5.46196V13.6141ZM14.6739 8.15217H8.47826C8.29891 8.15217 8.15217 8.29891 8.15217 8.47826V14.6739C8.15217 14.8533 8.29891 15 8.47826 15H14.6739C14.8533 15 15 14.8533 15 14.6739V8.47826C15 8.29891 14.8533 8.15217 14.6739 8.15217ZM13.6141 13.6141H9.53804V9.53804H13.6141V13.6141Z" fill="currentColor"/>
    </svg>
    <svg id="redo" width="15" height="12" viewBox="0 0 15 12" fill="none" xmlns="http://www.w3.org/2000/svg">
      <path d="M12.2727 2.77174L9.54545 5.54348H11.5909C11.5909 6.64614 11.1599 7.70365 10.3927 8.48335C9.62552 9.26306 8.58498 9.70109 7.5 9.70109C6.81818 9.70109 6.15682 9.52785 5.59091 9.21603L4.59545 10.2277C5.43409 10.7682 6.42955 11.087 7.5 11.087C8.94664 11.087 10.334 10.5029 11.3569 9.46331C12.3799 8.42371 12.9545 7.0137 12.9545 5.54348H15L12.2727 2.77174ZM3.40909 5.54348C3.40909 4.44081 3.8401 3.38331 4.60729 2.60361C5.37448 1.8239 6.41502 1.38587 7.5 1.38587C8.18182 1.38587 8.84318 1.5591 9.40909 1.87092L10.4045 0.859239C9.56591 0.31875 8.57045 0 7.5 0C6.05336 0 4.66598 0.584043 3.64305 1.62365C2.62013 2.66325 2.04545 4.07326 2.04545 5.54348H0L2.72727 8.31522L5.45455 5.54348" fill="currentColor"/>
    </svg>
    <svg id="message" width="15" height="15" viewBox="0 0 15 15" fill="none" xmlns="http://www.w3.org/2000/svg">
      <path d="M13.5 0H1.5C1.10218 0 0.720644 0.158035 0.43934 0.43934C0.158035 0.720644 0 1.10218 0 1.5V15L3 12H13.5C13.8978 12 14.2794 11.842 14.5607 11.5607C14.842 11.2794 15 10.8978 15 10.5V1.5C15 1.10218 14.842 0.720644 14.5607 0.43934C14.2794 0.158035 13.8978 0 13.5 0ZM13.5 10.5H3L1.5 12V1.5H13.5" fill="currentColor"/>
    </svg>
    <svg id="stamp" width="15" height="15" viewBox="0 0 15 15" fill="none" xmlns="http://www.w3.org/2000/svg">
      <path d="M14.707 2.37305C14.8688 2.37305 15 2.24188 15 2.08008V0.292969C15 0.131162 14.8688 0 14.707 0H12.9199C12.7581 0 12.627 0.131162 12.627 0.292969C12.627 0.470654 12.4824 0.615234 12.3047 0.615234C12.127 0.615234 11.9824 0.470654 11.9824 0.292969C11.9824 0.131162 11.8512 0 11.6895 0H10.5176C10.3558 0 10.2246 0.131162 10.2246 0.292969C10.2246 0.470654 10.08 0.615234 9.90234 0.615234C9.72466 0.615234 9.58008 0.470654 9.58008 0.292969C9.58008 0.131162 9.44889 0 9.28711 0H8.11523C7.95346 0 7.82227 0.131162 7.82227 0.292969C7.82227 0.470654 7.67769 0.615234 7.5 0.615234C7.32231 0.615234 7.17773 0.470654 7.17773 0.292969C7.17773 0.131162 7.04654 0 6.88477 0H5.71289C5.55111 0 5.41992 0.131162 5.41992 0.292969C5.41992 0.470654 5.27534 0.615234 5.09766 0.615234C4.91997 0.615234 4.77539 0.470654 4.77539 0.292969C4.77539 0.131162 4.6442 0 4.48242 0H3.31055C3.14877 0 3.01758 0.131162 3.01758 0.292969C3.01758 0.470654 2.873 0.615234 2.69531 0.615234C2.51763 0.615234 2.37305 0.470654 2.37305 0.292969C2.37305 0.131162 2.24186 0 2.08008 0H0.292969C0.131191 0 0 0.131162 0 0.292969V2.08008C0 2.24188 0.131191 2.37305 0.292969 2.37305C0.470654 2.37305 0.615234 2.51763 0.615234 2.69531C0.615234 2.873 0.470654 3.01758 0.292969 3.01758C0.131191 3.01758 0 3.14874 0 3.31055V4.48242C0 4.64423 0.131191 4.77539 0.292969 4.77539C0.470654 4.77539 0.615234 4.91997 0.615234 5.09766C0.615234 5.27534 0.470654 5.41992 0.292969 5.41992C0.131191 5.41992 0 5.55108 0 5.71289V6.88477C0 7.04657 0.131191 7.17773 0.292969 7.17773C0.470654 7.17773 0.615234 7.32231 0.615234 7.5C0.615234 7.67769 0.470654 7.82227 0.292969 7.82227C0.131191 7.82227 0 7.95343 0 8.11523V9.28711C0 9.44892 0.131191 9.58008 0.292969 9.58008C0.470654 9.58008 0.615234 9.72466 0.615234 9.90234C0.615234 10.08 0.470654 10.2246 0.292969 10.2246C0.131191 10.2246 0 10.3558 0 10.5176V11.6895C0 11.8513 0.131191 11.9824 0.292969 11.9824C0.470654 11.9824 0.615234 12.127 0.615234 12.3047C0.615234 12.4824 0.470654 12.627 0.292969 12.627C0.131191 12.627 0 12.7581 0 12.9199V14.707C0 14.8688 0.131191 15 0.292969 15H2.08008C2.24186 15 2.37305 14.8688 2.37305 14.707C2.37305 14.5293 2.51763 14.3848 2.69531 14.3848C2.873 14.3848 3.01758 14.5293 3.01758 14.707C3.01758 14.8688 3.14877 15 3.31055 15H4.48242C4.6442 15 4.77539 14.8688 4.77539 14.707C4.77539 14.5293 4.91997 14.3848 5.09766 14.3848C5.27534 14.3848 5.41992 14.5293 5.41992 14.707C5.41992 14.8688 5.55111 15 5.71289 15H6.88477C7.04654 15 7.17773 14.8688 7.17773 14.707C7.17773 14.5293 7.32231 14.3848 7.5 14.3848C7.67769 14.3848 7.82227 14.5293 7.82227 14.707C7.82227 14.8688 7.95346 15 8.11523 15H9.28711C9.44889 15 9.58008 14.8688 9.58008 14.707C9.58008 14.5293 9.72466 14.3848 9.90234 14.3848C10.08 14.3848 10.2246 14.5293 10.2246 14.707C10.2246 14.8688 10.3558 15 10.5176 15H11.6895C11.8512 15 11.9824 14.8688 11.9824 14.707C11.9824 14.5293 12.127 14.3848 12.3047 14.3848C12.4824 14.3848 12.627 14.5293 12.627 14.707C12.627 14.8688 12.7581 15 12.9199 15H14.707C14.8688 15 15 14.8688 15 14.707V12.9199C15 12.7581 14.8688 12.627 14.707 12.627C14.5293 12.627 14.3848 12.4824 14.3848 12.3047C14.3848 12.127 14.5293 11.9824 14.707 11.9824C14.8688 11.9824 15 11.8513 15 11.6895V10.5176C15 10.3558 14.8688 10.2246 14.707 10.2246C14.5293 10.2246 14.3848 10.08 14.3848 9.90234C14.3848 9.72466 14.5293 9.58008 14.707 9.58008C14.8688 9.58008 15 9.44892 15 9.28711V8.11523C15 7.95343 14.8688 7.82227 14.707 7.82227C14.5293 7.82227 14.3848 7.67769 14.3848 7.5C14.3848 7.32231 14.5293 7.17773 14.707 7.17773C14.8688 7.17773 15 7.04657 15 6.88477V5.71289C15 5.55108 14.8688 5.41992 14.707 5.41992C14.5293 5.41992 14.3848 5.27534 14.3848 5.09766C14.3848 4.91997 14.5293 4.77539 14.707 4.77539C14.8688 4.77539 15 4.64423 15 4.48242V3.31055C15 3.14874 14.8688 3.01758 14.707 3.01758C14.5293 3.01758 14.3848 2.873 14.3848 2.69531C14.3848 2.51763 14.5293 2.37305 14.707 2.37305ZM14.4141 1.8356C14.0566 1.95773 13.7988 2.29699 13.7988 2.69531C13.7988 3.09363 14.0566 3.43289 14.4141 3.55503V4.23794C14.0566 4.36008 13.7988 4.69934 13.7988 5.09766C13.7988 5.49598 14.0566 5.83523 14.4141 5.95737V6.64028C14.0566 6.76242 13.7988 7.10168 13.7988 7.5C13.7988 7.89832 14.0566 8.23758 14.4141 8.35972V9.04263C14.0566 9.16477 13.7988 9.50402 13.7988 9.90234C13.7988 10.3007 14.0566 10.6399 14.4141 10.7621V11.445C14.0566 11.5671 13.7988 11.9064 13.7988 12.3047C13.7988 12.703 14.0566 13.0423 14.4141 13.1644V14.4141H13.1644C13.0423 14.0566 12.703 13.7988 12.3047 13.7988C11.9063 13.7988 11.5671 14.0566 11.4449 14.4141H10.7621C10.6399 14.0566 10.3007 13.7988 9.90231 13.7988C9.50396 13.7988 9.16474 14.0566 9.04257 14.4141H8.35969C8.23752 14.0566 7.89829 13.7988 7.49994 13.7988C7.10159 13.7988 6.76236 14.0566 6.64019 14.4141H5.95731C5.83515 14.0566 5.49592 13.7988 5.09757 13.7988C4.69922 13.7988 4.35999 14.0566 4.23782 14.4141H3.55494C3.43277 14.0566 3.09354 13.7988 2.6952 13.7988C2.29685 13.7988 1.95762 14.0566 1.83545 14.4141H0.585938V13.1644C0.943418 13.0423 1.20117 12.703 1.20117 12.3047C1.20117 11.9064 0.943418 11.5671 0.585938 11.445V10.7621C0.943418 10.6399 1.20117 10.3007 1.20117 9.90234C1.20117 9.50402 0.943418 9.16477 0.585938 9.04263V8.35972C0.943418 8.23758 1.20117 7.89832 1.20117 7.5C1.20117 7.10168 0.943418 6.76242 0.585938 6.64028V5.95737C0.943418 5.83523 1.20117 5.49598 1.20117 5.09766C1.20117 4.69934 0.943418 4.36008 0.585938 4.23794V3.55503C0.943418 3.43289 1.20117 3.09363 1.20117 2.69531C1.20117 2.29699 0.943418 1.95773 0.585938 1.8356V0.585938H1.83557C1.95773 0.943418 2.29696 1.20117 2.69531 1.20117C3.09366 1.20117 3.43289 0.943418 3.55506 0.585938H4.23794C4.36011 0.943418 4.69934 1.20117 5.09769 1.20117C5.49604 1.20117 5.83526 0.943418 5.95743 0.585938H6.64031C6.76248 0.943418 7.10171 1.20117 7.50006 1.20117C7.89841 1.20117 8.23764 0.943418 8.3598 0.585938H9.04269C9.16485 0.943418 9.50408 1.20117 9.90243 1.20117C10.3008 1.20117 10.64 0.943418 10.7622 0.585938H11.4451C11.5672 0.943418 11.9065 1.20117 12.3048 1.20117C12.7032 1.20117 13.0424 0.943418 13.1646 0.585938H14.4141V1.8356Z" fill="currentColor"/>
      <path d="M12.4805 2.8125C12.4805 2.65069 12.3493 2.51953 12.1875 2.51953H2.8125C2.65072 2.51953 2.51953 2.65069 2.51953 2.8125V12.1875C2.51953 12.3493 2.65072 12.4805 2.8125 12.4805H8.9734C9.41742 12.915 10.0245 13.1836 10.6934 13.1836C12.0503 13.1836 13.1543 12.0796 13.1543 10.7227C13.1543 10.069 12.8977 9.47455 12.4805 9.03343V2.8125ZM3.10547 3.10547H11.8945V7.3401L7.69342 3.82365C7.58458 3.7326 7.42614 3.7326 7.31731 3.82365L6.37813 4.60975C6.18542 4.14026 5.7237 3.80859 5.18555 3.80859C4.47475 3.80859 3.89648 4.38686 3.89648 5.09766C3.89648 5.55226 4.13294 5.95626 4.4949 6.18606L3.10547 7.34906V3.10547ZM5.88472 5.02277L4.9887 5.77277C4.69324 5.68729 4.48242 5.41494 4.48242 5.09766C4.48242 4.70997 4.79786 4.39453 5.18555 4.39453C5.54795 4.39453 5.84722 4.67016 5.88472 5.02277ZM3.10547 11.8945V8.11321L7.50536 4.43039L11.8945 8.10425V8.57593C11.539 8.37618 11.1294 8.26172 10.6934 8.26172C9.33642 8.26172 8.23242 9.36568 8.23242 10.7227C8.23242 11.1466 8.3402 11.5459 8.52979 11.8945H3.10547ZM12.5684 10.7227C12.5684 11.7565 11.7272 12.5977 10.6934 12.5977C9.65947 12.5977 8.81836 11.7565 8.81836 10.7227C8.81836 9.68877 9.65947 8.84766 10.6934 8.84766C11.7272 8.84766 12.5684 9.68877 12.5684 10.7227Z" fill="currentColor"/>
      <path d="M10.6934 9.4043C9.96642 9.4043 9.375 9.99571 9.375 10.7227C9.375 11.4496 9.96642 12.041 10.6934 12.041C11.4203 12.041 12.0117 11.4496 12.0117 10.7227C12.0117 9.99571 11.4203 9.4043 10.6934 9.4043ZM10.6934 11.4551C10.2895 11.4551 9.96094 11.1265 9.96094 10.7227C9.96094 10.3188 10.2895 9.99023 10.6934 9.99023C11.0972 9.99023 11.4258 10.3188 11.4258 10.7227C11.4258 11.1265 11.0972 11.4551 10.6934 11.4551Z" fill="currentColor"/>
      <path d="M3.95508 10.166H6.24023C6.40166 10.166 6.5332 10.0345 6.5332 9.87305C6.5332 9.71162 6.40166 9.58008 6.24023 9.58008H3.95508C3.79365 9.58008 3.66211 9.71162 3.66211 9.87305C3.66211 10.0345 3.79365 10.166 3.95508 10.166Z" fill="currentColor"/>
      <path d="M7.41211 9.58008C7.25068 9.58008 7.11914 9.71162 7.11914 9.87305C7.11914 10.0345 7.25068 10.166 7.41211 10.166C7.57354 10.166 7.70508 10.0345 7.70508 9.87305C7.70508 9.71162 7.57354 9.58008 7.41211 9.58008Z" fill="currentColor"/>
      <path d="M4.01367 8.99414C4.1751 8.99414 4.30664 8.8626 4.30664 8.70117C4.30664 8.53975 4.1751 8.4082 4.01367 8.4082C3.85225 8.4082 3.7207 8.53975 3.7207 8.70117C3.7207 8.8626 3.85225 8.99414 4.01367 8.99414Z" fill="currentColor"/>
      <path d="M7.99805 8.4082H5.18555C5.02412 8.4082 4.89258 8.53975 4.89258 8.70117C4.89258 8.8626 5.02412 8.99414 5.18555 8.99414H7.99805C8.15947 8.99414 8.29102 8.8626 8.29102 8.70117C8.29102 8.53975 8.15947 8.4082 7.99805 8.4082Z" fill="currentColor"/>
      <path d="M3.95508 10.752C3.79365 10.752 3.66211 10.8835 3.66211 11.0449C3.66211 11.2063 3.79365 11.3379 3.95508 11.3379C4.1165 11.3379 4.24805 11.2063 4.24805 11.0449C4.24805 10.8835 4.1165 10.752 3.95508 10.752Z" fill="currentColor"/>
      <path d="M7.29492 10.752H5.12695C4.96553 10.752 4.83398 10.8835 4.83398 11.0449C4.83398 11.2063 4.96553 11.3379 5.12695 11.3379H7.29492C7.45635 11.3379 7.58789 11.2063 7.58789 11.0449C7.58789 10.8835 7.45635 10.752 7.29492 10.752Z" fill="currentColor"/>
    </svg>
    <svg id="trash-redo" width="15" height="15" viewBox="0 0 15 15" fill="none" xmlns="http://www.w3.org/2000/svg">
      <g clip-path="url(#clip0)">
        <path d="M13.0402 2.08905H9.51068V0.440814C9.51068 0.197367 9.31332 0 9.06987 0H5.93018C5.68674 0 5.48937 0.197367 5.48937 0.440814V2.08905H1.95986C1.71641 2.08905 1.51904 2.28642 1.51904 2.52986V4.30511C1.51904 4.54856 1.71641 4.74592 1.95986 4.74592H2.03917L2.69408 14.5885C2.70948 14.82 2.90182 15 3.13392 15H11.8661C12.0982 15 12.2905 14.82 12.306 14.5885L12.9609 4.74592H13.0402C13.2836 4.74592 13.481 4.54856 13.481 4.30511V2.52986C13.481 2.28642 13.2836 2.08905 13.0402 2.08905ZM6.371 0.881629H8.62905V2.08905H6.371V0.881629ZM2.40067 2.97068H12.5994V3.8643H2.40067V2.97068ZM11.4537 14.1184H3.54638L2.92277 4.74592H12.0773L11.4537 14.1184Z" fill="currentColor"/>
        <path d="M5.97868 7.74283C6.33154 7.38997 6.80071 7.19563 7.29974 7.19563C7.79877 7.19563 8.26792 7.38997 8.62077 7.74283C8.85529 7.97731 9.01942 8.26361 9.10338 8.5752C8.93079 8.44687 8.68596 8.46056 8.52935 8.61714C8.3572 8.78926 8.3572 9.06842 8.52932 9.24054L9.29707 10.0083C9.37974 10.091 9.49185 10.1374 9.60876 10.1374C9.72566 10.1374 9.83778 10.091 9.92047 10.0083L10.6882 9.24054C10.8603 9.06842 10.8603 8.78929 10.6882 8.61714C10.5161 8.44502 10.2369 8.44502 10.0648 8.61714L10.0202 8.66169C9.9354 8.07976 9.66724 7.54243 9.24417 7.11939C8.72481 6.6 8.03426 6.31396 7.29974 6.31396C6.56523 6.31396 5.87468 6.6 5.35531 7.11939C5.18316 7.29152 5.18316 7.57064 5.35531 7.7428C5.52743 7.91495 5.80656 7.91495 5.97868 7.74283Z" fill="currentColor"/>
        <path d="M4.93538 10.2472L4.97996 10.2027C5.0648 10.7846 5.33293 11.322 5.75602 11.745C6.27539 12.2644 6.96594 12.5504 7.70045 12.5504C8.43496 12.5504 9.12551 12.2644 9.64488 11.745C9.81703 11.5729 9.81703 11.2937 9.64488 11.1216C9.47275 10.9495 9.19363 10.9495 9.02148 11.1216C8.66862 11.4745 8.19945 11.6688 7.70042 11.6688C7.20142 11.6688 6.73225 11.4745 6.37939 11.1216C6.14488 10.8871 5.98075 10.6008 5.89679 10.2892C5.97452 10.3469 6.06671 10.3764 6.15913 10.3764C6.27195 10.3764 6.38477 10.3333 6.47085 10.2473C6.64297 10.0751 6.64297 9.79601 6.47085 9.62386L5.7031 8.85614C5.53097 8.68402 5.25185 8.68402 5.0797 8.85614L4.31198 9.62386C4.13983 9.79598 4.13983 10.0751 4.31195 10.2473C4.48416 10.4194 4.76325 10.4194 4.93538 10.2472Z" fill="currentColor"/>
      </g>
      <defs>
        <clipPath id="clip0">
        <rect width="15" height="15" fill="white"/>
        </clipPath>
      </defs>
    </svg>
    <svg id="add-list" width="15" height="11" viewBox="0 0 15 11" fill="none" xmlns="http://www.w3.org/2000/svg">
      <path d="M0 7.30519H6V5.84416H0V7.30519ZM12 5.84416V2.92208H10.5V5.84416H7.5V7.30519H10.5V10.2273H12V7.30519H15V5.84416H12ZM9 0H0V1.46104H9V0ZM9 2.92208H0V4.38312H9V2.92208Z" fill="#686B6F"/>
    </svg>
    <svg id="operate" width="15" height="15" viewBox="0 0 15 15" fill="none" xmlns="http://www.w3.org/2000/svg">
      <path d="M3.54492 1.96289C2.81798 1.96289 2.22656 2.55431 2.22656 3.28125V13.6816C2.22656 13.7982 2.27285 13.91 2.35529 13.9924L3.2342 14.8713C3.40582 15.0429 3.68405 15.0429 3.85567 14.8713L4.73458 13.9924C4.81699 13.91 4.86328 13.7982 4.86328 13.6816V3.28125C4.86328 2.55431 4.27187 1.96289 3.54492 1.96289ZM3.98438 13.4996L3.54492 13.9391L3.10547 13.4996V3.28125C3.10547 3.03894 3.30261 2.8418 3.54492 2.8418C3.78724 2.8418 3.98438 3.03894 3.98438 3.28125V13.4996Z" fill="currentColor"/>
      <path d="M7.5 1.96289C6.77306 1.96289 6.18164 2.55431 6.18164 3.28125V13.6816C6.18164 13.7982 6.22793 13.91 6.31037 13.9924L7.18928 14.8713C7.3609 15.0429 7.63913 15.0429 7.81075 14.8713L8.68966 13.9924C8.77207 13.91 8.81836 13.7982 8.81836 13.6816V3.28125C8.81836 2.55431 8.22694 1.96289 7.5 1.96289ZM7.93945 13.4996L7.5 13.9391L7.06055 13.4996V3.28125C7.06055 3.03894 7.25769 2.8418 7.5 2.8418C7.74231 2.8418 7.93945 3.03894 7.93945 3.28125V13.4996Z" fill="currentColor"/>
      <path d="M11.4551 1.96289C10.7281 1.96289 10.1367 2.55431 10.1367 3.28125V13.6816C10.1367 13.7982 10.183 13.91 10.2654 13.9924L11.1444 14.8713C11.316 15.0429 11.5942 15.0429 11.7658 14.8713L12.6447 13.9924C12.7271 13.91 12.7734 13.7982 12.7734 13.6816V3.28125C12.7734 2.55431 12.182 1.96289 11.4551 1.96289ZM11.8945 13.4996L11.4551 13.9391L11.0156 13.4996V3.28125C11.0156 3.03894 11.2128 2.8418 11.4551 2.8418C11.6974 2.8418 11.8945 3.03894 11.8945 3.28125V13.4996Z" fill="currentColor"/>
      <path d="M6.38522 1.31836H6.82617C7.06887 1.31836 7.26562 1.1216 7.26562 0.878906C7.26562 0.636211 7.06887 0.439453 6.82617 0.439453H6.38522C6.37011 0.210469 6.18009 0.0292969 5.94727 0.0292969C5.71444 0.0292969 5.52442 0.210469 5.50931 0.439453H5.50635C5.4912 0.210469 5.30118 0.0292969 5.06836 0.0292969C4.83554 0.0292969 4.64552 0.210469 4.6304 0.439453H4.18945C3.94676 0.439453 3.75 0.636211 3.75 0.878906C3.75 1.1216 3.94676 1.31836 4.18945 1.31836H4.6304C4.64555 1.54734 4.83557 1.72852 5.06836 1.72852C5.30115 1.72852 5.4912 1.54734 5.50632 1.31836H5.50928C5.52442 1.54734 5.71444 1.72852 5.94724 1.72852C6.18003 1.72852 6.37011 1.54734 6.38522 1.31836Z" fill="currentColor"/>
      <path d="M10.3711 1.31836H10.8105C11.0532 1.31836 11.25 1.1216 11.25 0.878906C11.25 0.636211 11.0532 0.439453 10.8105 0.439453H10.3711C10.3711 0.196758 10.1743 0 9.93164 0C9.68895 0 9.49219 0.196758 9.49219 0.439453C9.49219 0.196758 9.29543 0 9.05273 0C8.81004 0 8.61328 0.196758 8.61328 0.439453H8.17383C7.93113 0.439453 7.73438 0.636211 7.73438 0.878906C7.73438 1.1216 7.93113 1.31836 8.17383 1.31836H8.61328C8.61328 1.56105 8.81004 1.75781 9.05273 1.75781C9.29543 1.75781 9.49219 1.56105 9.49219 1.31836C9.49219 1.56105 9.68895 1.75781 9.93164 1.75781C10.1743 1.75781 10.3711 1.56105 10.3711 1.31836Z" fill="currentColor"/>
    </svg>
    <svg id="worker" width="15" height="15" viewBox="0 0 15 15" fill="none" xmlns="http://www.w3.org/2000/svg">
      <g clip-path="url(#clip0)">
        <path d="M3.84578 10.6055C2.44141 10.6055 1.20643 11.5558 0.861486 12.9356L0.481886 14.454C0.449044 14.5852 0.478546 14.7243 0.561837 14.831C0.645099 14.9377 0.772863 15 0.908185 15H14.0918C14.2271 15 14.3549 14.9377 14.4382 14.831C14.5214 14.7243 14.5509 14.5852 14.5181 14.454L14.1385 12.9356C13.7938 11.5567 12.5596 10.6055 11.1542 10.6055H9.25779C9.25779 10.6055 9.25694 10.1423 9.25601 10.1307C10.307 9.51709 11.0156 8.37073 11.0156 7.06055V5.30273H11.4551C11.6978 5.30273 11.8945 5.10598 11.8945 4.86328C11.8945 4.62059 11.6978 4.42383 11.4551 4.42383H11.0156C11.0156 2.97568 10.1269 1.66878 8.81834 1.13566V0.439453C8.81834 0.196758 8.62158 0 8.37889 0H6.62108C6.37838 0 6.18162 0.196758 6.18162 0.439453V1.13566C4.87302 1.66878 3.98436 2.97568 3.98436 4.42383H3.5449C3.30221 4.42383 3.10545 4.62059 3.10545 4.86328C3.10545 5.10598 3.30221 5.30273 3.5449 5.30273H3.98436V7.06055C3.98436 8.37073 4.69296 9.51709 5.74396 10.1307C5.74302 10.1423 5.74217 10.6055 5.74217 10.6055H3.84578ZM3.10545 14.1211H1.47104L1.71411 13.1487C1.89646 12.4194 2.42878 11.854 3.10545 11.6124V14.1211ZM11.8945 11.6124C12.5712 11.854 13.1035 12.4194 13.2859 13.1487L13.5289 14.1211H11.8945V11.6124ZM11.0156 14.1211H3.98436V13.2422H11.0156V14.1211ZM6.62108 11.4844V10.4933C6.90209 10.5665 7.19661 10.6055 7.49998 10.6055C7.80335 10.6055 8.09787 10.5665 8.37889 10.4933V11.4844C8.37889 11.969 7.98461 12.3633 7.49998 12.3633C7.01535 12.3633 6.62108 11.969 6.62108 11.4844ZM9.25779 11.4844H11.0156V12.3633H9.02131C9.1714 12.1045 9.25779 11.8044 9.25779 11.4844ZM6.18162 2.11289V3.10547C6.18162 3.34816 6.37838 3.54492 6.62108 3.54492C6.86377 3.54492 7.06053 3.34816 7.06053 3.10547C7.06053 2.44535 7.06053 1.5394 7.06053 0.878906H7.93943V3.10547C7.93943 3.34816 8.13619 3.54492 8.37889 3.54492C8.62158 3.54492 8.81834 3.34816 8.81834 3.10547V2.11289C9.61636 2.58079 10.1367 3.46049 10.1367 4.42383H4.86326C4.86326 3.46049 5.3836 2.58076 6.18162 2.11289ZM4.86326 5.30273H10.1367V7.01115C9.81903 6.9409 9.52768 6.8047 9.22457 6.66264C8.74363 6.4372 8.19854 6.18164 7.49998 6.18164C6.80143 6.18164 6.25633 6.4372 5.77539 6.66264C5.47229 6.80473 5.18093 6.94093 4.86326 7.01115V5.30273ZM4.99155 7.88212C5.43107 7.79411 5.80645 7.61877 6.14846 7.45846C6.58495 7.25382 6.99722 7.06055 7.49998 7.06055C8.00274 7.06055 8.41501 7.25382 8.85153 7.45846C9.19352 7.61877 9.5689 7.79411 10.0084 7.88212C9.66505 8.95137 8.67045 9.72656 7.49998 9.72656C6.32951 9.72656 5.33491 8.95137 4.99155 7.88212ZM5.97865 12.3633H3.98436V11.4844H5.74217C5.74217 11.8044 5.82857 12.1045 5.97865 12.3633Z" fill="currentColor"/>
      </g>
      <defs>
        <clipPath id="clip0">
          <rect width="15" height="15" fill="white"/>
        </clipPath>
      </defs>
    </svg>
    <svg id="person-outline" width="15" height="15" viewBox="0 0 15 15" fill="none" xmlns="http://www.w3.org/2000/svg">
      <path fill-rule="evenodd" clip-rule="evenodd" d="M7.95142 6.54785C9.33213 6.54785 10.4514 5.42856 10.4514 4.04785C10.4514 2.66714 9.33213 1.54785 7.95142 1.54785C6.5707 1.54785 5.45142 2.66714 5.45142 4.04785C5.45142 5.42856 6.5707 6.54785 7.95142 6.54785Z" stroke="currentColor" stroke-linecap="round" stroke-linejoin="round"/>
      <path d="M2.5 14.0764C2.5 11.111 4.87849 8.70703 7.8125 8.70703C10.7465 8.70703 13.125 11.111 13.125 14.0764" stroke="currentColor" stroke-linecap="round" stroke-linejoin="round"/>
    </svg>
    <svg id="on-off" width="15" height="15" viewBox="0 0 15 15" fill="none" xmlns="http://www.w3.org/2000/svg">
      <path d="M10.2497 1.82196C9.93334 1.68377 9.56489 1.82817 9.4267 2.14449C9.28851 2.46081 9.43291 2.82925 9.74923 2.96745C11.7828 3.85585 13.1251 5.86719 13.1251 8.12476C13.1251 11.2313 10.6063 13.7498 7.50003 13.7498C4.39331 13.7498 1.87499 11.2315 1.87499 8.12476C1.87499 5.86769 3.2168 3.85635 5.24978 2.96736C5.56604 2.82908 5.71033 2.46058 5.57202 2.14432C5.43374 1.82806 5.06524 1.68377 4.74898 1.82208C2.26491 2.90827 0.625 5.36647 0.625 8.12474C0.625 11.9218 3.70298 14.9998 7.50006 14.9998C11.2967 14.9998 14.3751 11.9216 14.3751 8.12474C14.3751 5.36583 12.7345 2.90751 10.2497 1.82196Z" fill="currentColor"/>
      <path d="M7.49975 6.87506C7.84493 6.87506 8.12475 6.59525 8.12475 6.25007V0.625024C8.12477 0.279817 7.84493 0 7.49975 0C7.15457 0 6.87476 0.279817 6.87476 0.624995V6.25004C6.87476 6.59522 7.15457 6.87506 7.49975 6.87506Z" fill="currentColor"/>
    </svg>
    <svg id="menu" width="15" height="15" viewBox="0 0 15 15" fill="none" xmlns="http://www.w3.org/2000/svg">
      <path d="M0 12.5H15V10.8333H0V12.5ZM0 8.33333H15V6.66667H0V8.33333ZM0 2.5V4.16667H15V2.5H0Z" fill="currentColor"/>
    </svg>
  </defs>
</svg>